# AST/ASF file generated using VICON BodyLanguage
# -----------------------------------------------
:version 1.10
:name VICON
:units
  mass 1.0
  length 0.45
  angle deg
:documentation
   .ast/.asf automatically generated from VICON data using
   VICON BodyBuilder and BodyLanguage model FoxedUp or BRILLIANT.MOD
:root
   order TX TY TZ RX RY RZ
   axis XYZ
   position 0 0 0  
   orientation 0 -0 0 
:bonedata
  begin
     id 1 
     name lhipjoint
     direction 0.432694 -0.693742 0.575759 
     length 2.19277 
     axis 0 -0 0  XYZ
  end
  begin
     id 2 
     name lfemur
     direction 0.34202 -0.939693 0  
     length 6.69022  
     axis 0 -0 20  XYZ
    dof rx ry rz
    limits (-160.0 20.0)
           (-70.0 70.0)
           (-60.0 70.0)
  end
  begin
     id 3 
     name ltibia
     direction 0.34202 -0.939693 0   
     length 6.50337   
     axis 0 -0 20   XYZ
    dof rx
    limits (-10.0 170.0)
  end
  begin
     id 4 
     name lfoot
     direction 0.158999 -0.435969 0.885805   
     length 2.70564   
     axis -90 -1.13533e-015 20   XYZ
    dof rx rz
    limits (-45.0 90.0)
           (-70.0 20.0)
  end
  begin
     id 5 
     name ltoes
     direction -0.00592919 0.00964381 0.999936   
     length 1.29929   
     axis -90 -1.13533e-015 20   XYZ
    dof rx
    limits (-90.0 20.0)
  end
  begin
     id 6 
     name rhipjoint
     direction -0.414359 -0.700339 0.581234   
     length 2.17212  
     axis 0 -0 0  XYZ 
  end
  begin
     id 7 
     name rfemur
     direction -0.34202 -0.939693 0   
     length 7.17659   
     axis 0 -0 -20   XYZ
    dof rx ry rz
    limits (-160.0 20.0)
           (-70.0 70.0)
           (-70.0 60.0)
  end
  begin
     id 8 
     name rtibia
     direction -0.34202 -0.939693 0   
     length 6.36669   
     axis 0 -0 -20   XYZ
    dof rx
    limits (-10.0 170.0)
 end
 begin
     id 9 
     name rfoot
     direction -0.137064 -0.37658 0.916188   
     length 2.22351  
     axis -90 1.13533e-015 -20   XYZ
    dof rx rz
    limits (-45.0 90.0)
           (-20.0 70.0)
  end
  begin
     id 10 
     name rtoes
     direction -0.000784077 -0.00289101 0.999996   
     length 1.09522   
     axis -90 1.13533e-015 -20   XYZ
    dof rx
    limits (-90.0 20.0)
  end
  begin
     id 11 
     name lowerback
     direction -0.0176242 0.984912 -0.172157   
     length 1.65301   
     axis 0 -0 0   XYZ
    dof rx ry rz
    limits (-20.0 45.0)
           (-30.0 30.0)
           (-30.0 30.0)
  end
  begin
     id 12 
     name upperback
     direction -0.00218128 0.998776 -0.0494072   
     length 1.67776   
     axis 0 -0 0   XYZ
    dof rx ry rz
    limits (-20.0 45.0)
           (-30.0 30.0)
           (-30.0 30.0)
  end
  begin
     id 13 
     name thorax
     direction 0.00544186 0.999658 0.0255711   
     length 1.72293   
     axis 0 -0 0   XYZ
    dof rx ry rz
    limits (-20.0 45.0)
           (-30.0 30.0)
           (-30.0 30.0)
  end
  begin
     id 14 
     name lowerneck
     direction -0.105325 0.983841 0.144785   
     length 2.14226   
     axis 0 -0 0   XYZ
    dof rx ry rz
    limits (-20.0 45.0)
           (-30.0 30.0)
           (-30.0 30.0)
  end
  begin
     id 15 
     name upperneck
     direction 0.0547957 0.988053 -0.144041   
     length 2.17508   
     axis 0 -0 0   XYZ
    dof rx ry rz
    limits (-20.0 45.0)
           (-30.0 30.0)
           (-30.0 30.0)
  end
  begin
     id 16
     name head
     direction 0.0247488 0.997534 -0.0656813  
     length 2.20048  
     axis 0 -0 0   XYZ
    dof rx ry rz
    limits (-20.0 45.0)
           (-30.0 30.0)
           (-30.0 30.0)
  end
  begin
     id 17 
     name lclavicle
     direction 0.820559 0.567247 -0.0701026  
     length 4.09615  
     axis 0 -0 0   XYZ
    dof ry rz
    limits (-20.0 10.0)
           (0.0 20.0)
  end
  begin
     id 18 
     name lhumerus
     direction 0.999977 -0.0067566 -9.96392e-005   
     length 4.59333   
     axis -180 -30 -90   XYZ
    dof rx ry rz
    limits (-60.0 90.0)
           (-90.0 90.0)
           (-90.0 90.0)
  end
  begin
     id 19
     name lradius
     direction 1 -4.48982e-011 -2.53425e-027   
     length 2.81151   
     axis -180 -30 -90   XYZ
    dof rx
    limits (-10.0 170.0)
  end
  begin
     id 20
     name lwrist
     direction 1 -4.48939e-011 -7.39254e-028   
     length 1.40576   
     axis 2.56395e-016 90 90   XYZ
    dof ry
    limits (-180.0 0.0)
 end
  begin
     id 21 
     name lhand
     direction 1 -4.48939e-011 -1.47851e-027   
     length 0.895651   
     axis 9.43423e-016 90 90   XYZ
    dof rx rz
    limits (-90.0 90.0)
           (-45.0 45.0)
  end
  begin
     id 22 
     name lfingers
     direction 1 -4.48978e-011 -2.95702e-027   
     length 0.722097   
     axis 1.88685e-015 90 90   XYZ
    dof rx
    limits (0.0 90.0)
  end
  begin
     id 23
     name lthumb
     direction 0.707107 -6.34931e-011 0.707107   
     length 1.03679   
     axis -90 45 -9.86935e-015   XYZ
    dof rx rz
    limits (-45.0 45.0)
           (-45.0 45.0)
  end
  begin
     id 24 
     name rclavicle
     direction -0.831414 0.553102 -0.0531864   
     length 4.24872  
     axis 0 -0 0   XYZ 
    dof ry rz
    limits (-10.0 20.0)
           (-20.0 0.0)
  end
  begin
     id 25 
     name rhumerus
     direction -0.999916 -0.000939607 0.0129331  
     length 4.74834   
     axis -180 30 90   XYZ
    dof rx ry rz
    limits (-90.0 60.0)
           (-90.0 90.0)
           (-90.0 90.0)
  end
  begin
     id 26 
     name rradius
     direction -1 -4.48956e-011 -1.31752e-027   
     length 2.79907   
     axis -180 30 90   XYZ
    dof rx
    limits (-10.0 170.0)
  end
  begin
     id 27 
     name rwrist
     direction -1 -4.4897e-011 -7.39254e-028   
     length 1.39954   
     axis 2.56395e-016 -90 -90   XYZ
    dof ry
    limits (-180.0 0.0)
  end
  begin
     id 28
     name rhand
     direction -0.999997 -0.00250697 0.000800838   
     length 0.953304   
     axis 9.43423e-016 -90 -90   XYZ
    dof rx rz
    limits (-90.0 90.0)
           (-45.0 45.0)
  end
  begin
     id 29
     name rfingers
     direction -1 -4.48954e-011 -2.95702e-027   
     length 0.763342   
     axis 1.88685e-015 -90 -90   XYZ
    dof rx
    limits (0.0 90.0)
  end
  begin
     id 30
     name rthumb
     direction -0.709701 -0.00217037 0.7045   
     length 1.10115   
     axis -90 -45 9.86935e-015   XYZ
    dof rx rz
    limits (-45.0 45.0)
           (-45.0 45.0)
  end
:hierarchy
  begin
    root lhipjoint rhipjoint lowerback
    lhipjoint lfemur
    lfemur ltibia
    ltibia lfoot
    lfoot ltoes
    rhipjoint rfemur
    rfemur rtibia
    rtibia rfoot
    rfoot rtoes
    lowerback upperback
    upperback thorax
    thorax lowerneck lclavicle rclavicle
    lowerneck upperneck
    upperneck head
    lclavicle lhumerus
    lhumerus lradius
    lradius lwrist
    lwrist lhand lthumb
    lhand lfingers
    rclavicle rhumerus
    rhumerus rradius
    rradius rwrist
    rwrist rhand rthumb
    rhand rfingers
  end

#!OML:ASF G:\ViconDB\ViconDB\414\test\team2\shane.ASF
:FULLY-SPECIFIED
:DEGREES
85
root 8.46174 15.5102 -2.95741 5.59273 5.52253 -4.78231
lowerback 13.4706 0.266758 -0.299571
upperback 7.62301 0.335941 -0.0782605
thorax 0.453738 0.167355 0.0445546
lowerneck -15.2421 -5.29387 -10.7928
upperneck 26.3674 -8.87161 14.9298
head 12.4461 -3.28834 6.21036
rclavicle -1.94809e-014 7.15625e-015
rhumerus -46.7093 16.8814 -81.2407
rradius 43.8736
rwrist 48.3692
rhand -44.2313 -11.7136
rfingers 7.12502
rthumb -17.0439 -40.9859
lclavicle -1.94809e-014 7.15625e-015
lhumerus -33.6744 -26.9097 91.9607
lradius 67.3534
lwrist -23.6151
lhand -51.8528 4.30671
lfingers 7.12502
lthumb -24.3664 32.7776
rfemur -4.04527 -10.792 11.5681
rtibia 85.2039
rfoot -6.61945 1.80325
rtoes -7.46379
lfemur -24.6988 16.4168 -14.6631
ltibia 60.4018
lfoot -43.237 -5.88517
ltoes -8.00825
86
root 8.48085 15.5002 -2.53716 5.41686 6.30698 -4.68319
lowerback 13.8253 -0.243455 -0.472436
upperback 7.54875 -0.348145 0.254221
thorax 0.19288 -0.184409 0.576876
lowerneck -15.2471 -5.16265 -11.4397
upperneck 26.2743 -8.45241 14.8078
head 12.3621 -3.18295 6.34125
rclavicle -3.97569e-015 -1.59028e-015
rhumerus -48.0181 15.3954 -78.8005
rradius 39.9305
rwrist 51.1055
rhand -43.9164 -10.0382
rfingers 7.12502
rthumb -16.7408 -39.3364
lclavicle -3.97569e-015 -1.59028e-015
lhumerus -30.5973 -27.1058 93.1982
lradius 68.9802
lwrist -23.5096
lhand -51.8737 4.69601
lfingers 7.12502
lthumb -24.3864 33.1642
rfemur -7.55559 -11.9275 11.1662
rtibia 88.5444
rfoot -8.13218 2.44826
rtoes -7.2096
lfemur -22.1198 15.4732 -14.1514
ltibia 59.2531
lfoot -44.2926 -5.49501
ltoes -8.70791
87
root 8.49065 15.4944 -2.11411 5.05086 6.94189 -4.72828
lowerback 14.4932 -0.786042 -0.492479
upperback 7.4368 -1.059 0.423822
thorax -0.265212 -0.540036 0.870924
lowerneck -15.4137 -4.9682 -11.5824
upperneck 26.3912 -8.07317 14.6087
head 12.3733 -3.04534 6.35368
rclavicle 3.57812e-015 -1.59028e-014
rhumerus -49.3098 13.7855 -76.3742
rradius 36.4458
rwrist 54.7695
rhand -43.8867 -9.94488
rfingers 7.12502
rthumb -16.7121 -39.2455
lclavicle 3.57812e-015 -1.59028e-014
lhumerus -28.0851 -27.197 93.9288
lradius 70.7134
lwrist -23.6216
lhand -52.2514 4.74003
lfingers 7.12502
lthumb -24.7485 33.159
rfemur -10.8635 -12.8773 11.0775
rtibia 91.3102
rfoot -9.60547 2.7148
rtoes -7.50183
lfemur -19.1576 14.7086 -13.4167
ltibia 57.7057
lfoot -45.1715 -5.09846
ltoes -9.45885
88
root 8.49024 15.5066 -1.69538 4.71003 7.94172 -4.57888
lowerback 15.4256 -1.52222 -0.72728
upperback 7.26604 -2.04877 0.558473
thorax -0.903742 -1.03538 1.31646
lowerneck -15.7454 -4.75961 -11.7293
upperneck 26.6038 -7.66406 14.3997
head 12.4529 -2.89075 6.37317
rclavicle -1.15295e-014 5.56597e-015
rhumerus -50.8688 12.8319 -73.9285
rradius 34.2663
rwrist 57.7248
rhand -43.6031 -8.7248
rfingers 7.12502
rthumb -16.4391 -38.0483
lclavicle -1.15295e-014 5.56597e-015
lhumerus -26.1797 -27.0285 94.4342
lradius 73.0366
lwrist -23.4825
lhand -52.7787 5.56278
lfingers 7.12502
lthumb -25.2537 33.9115
rfemur -14.0907 -14.2163 10.9062
rtibia 93.5183
rfoot -10.9736 2.95226
rtoes -6.68198
lfemur -16.2545 13.7633 -12.893
ltibia 55.7151
lfoot -45.62 -4.83715
ltoes -10.4257
89
root 8.48585 15.529 -1.26796 4.41333 8.80864 -4.532
lowerback 16.1984 -2.22431 -0.862747
upperback 7.08428 -2.97866 0.771255
thorax -1.45541 -1.49715 1.79953
lowerneck -15.9859 -4.5307 -12.1805
upperneck 26.724 -7.19863 14.4152
head 12.4904 -2.72176 6.5447
rclavicle -7.15625e-015 1.66979e-014
rhumerus -52.7527 12.6982 -71.9308
rradius 33.2147
rwrist 58.8227
rhand -43.5312 -7.58812
rfingers 7.12502
rthumb -16.3699 -36.9173
lclavicle -7.15625e-015 1.66979e-014
lhumerus -24.9104 -27.1934 94.9523
lradius 75.5626
lwrist -22.9656
lhand -53.2717 6.02788
lfingers 7.12502
lthumb -25.726 34.3091
rfemur -17.3686 -15.4383 11.1079
rtibia 95.1185
rfoot -12.33 2.8229
rtoes -6.59157
lfemur -13.2106 12.8846 -12.2676
ltibia 53.436
lfoot -45.9198 -4.51926
ltoes -11.5365
90
root 8.44881 15.5544 -0.847678 4.09622 9.97784 -3.76405
lowerback 17.5359 -2.82345 -2.31362
upperback 6.74165 -3.97747 1.16721
thorax -2.34523 -2.00338 3.28968
lowerneck -16.2217 -4.31903 -13.2689
upperneck 27.0123 -6.64962 14.6586
head 12.6121 -2.55738 6.95387
rclavicle -3.29983e-014 -3.26007e-014
rhumerus -55.0512 13.5742 -70.2751
rradius 33.1429
rwrist 58.9986
rhand -43.3536 -7.81511
rfingers 7.12502
rthumb -16.1989 -37.1583
lclavicle -3.29983e-014 -3.26007e-014
lhumerus -24.0438 -27.3945 95.6933
lradius 78.1497
lwrist -22.1449
lhand -53.6376 6.22888
lfingers 7.12502
lthumb -26.0764 34.4589
rfemur -20.1336 -17.0197 11.0058
rtibia 96.1115
rfoot -13.9925 2.07933
rtoes -6.91074
lfemur -9.81494 12.1828 -12.0158
ltibia 50.6976
lfoot -46.1901 -4.49537
ltoes -12.6984
91
root 8.43911 15.5902 -0.40098 4.68376 11.3104 -4.10923
lowerback 17.3412 -3.68004 -1.91202
upperback 6.17236 -5.0108 1.67461
thorax -2.76069 -2.50104 3.79941
lowerneck -16.032 -3.97346 -13.0188
upperneck 26.9548 -5.91112 13.57
head 12.3629 -2.33361 6.56753
rclavicle -8.26944e-014 6.36111e-015
rhumerus -57.8907 15.0804 -69.5501
rradius 33.8421
rwrist 57.9532
rhand -43.4356 -8.25036
rfingers 7.12502
rthumb -16.2778 -37.5871
lclavicle -8.26944e-014 6.36111e-015
lhumerus -23.3946 -28.0641 95.9352
lradius 80.6171
lwrist -21.4107
lhand -54.0612 6.88296
lfingers 7.12502
lthumb -26.4819 35.0525
rfemur -24.4459 -18.5641 12.2016
rtibia 96.5595
rfoot -15.0319 2.05862
rtoes -7.20691
lfemur -7.7885 10.8696 -11.2533
ltibia 47.7167
lfoot -45.5668 -4.68508
ltoes -13.6956
92
root 8.43609 15.6415 0.0709356 4.49164 11.4063 -4.38112
lowerback 17.44 -4.07468 -2.02062
upperback 6.05755 -5.52797 2.11829
thorax -2.83622 -2.76137 4.43664
lowerneck -16.2565 -3.69932 -13.7347
upperneck 27.0324 -5.30686 13.6513
head 12.3608 -2.12427 6.83133
rclavicle 2.5842e-014 -1.66979e-014
rhumerus -60.5609 17.0792 -69.6243
rradius 35.075
rwrist 54.9909
rhand -43.5797 -8.05717
rfingers 7.12502
rthumb -16.4165 -37.3825
lclavicle 2.5842e-014 -1.66979e-014
lhumerus -22.6567 -28.598 95.6407
lradius 83.0182
lwrist -21.2657
lhand -53.8655 6.88493
lfingers 7.12502
lthumb -26.2946 35.0826
rfemur -27.5971 -18.2601 13.4467
rtibia 96.1965
rfoot -16.2833 2.03446
rtoes -6.66399
lfemur -4.1465 10.6816 -10.1886
ltibia 44.1573
lfoot -44.8956 -4.7062
ltoes -15.2124
93
root 8.42752 15.7058 0.54246 4.8064 11.6766 -4.19754
lowerback 17.1284 -4.50314 -2.2071
upperback 5.8056 -6.10864 2.39568
thorax -2.83648 -3.05197 4.92292
lowerneck -16.2909 -3.39732 -13.9428
upperneck 27.0548 -4.63779 13.0928
head 12.2489 -1.91169 6.74237
rclavicle 3.3197e-014 -8.34896e-015
rhumerus -63.4557 18.9608 -70.202
rradius 36.6498
rwrist 51.7782
rhand -43.586 -8.73681
rfingers 7.12502
rthumb -16.4226 -38.0616
lclavicle 3.3197e-014 -8.34896e-015
lhumerus -22.1564 -29.2271 95.247
lradius 85.2188
lwrist -21.0155
lhand -53.9936 6.69529
lfingers 7.12502
lthumb -26.4172 34.8746
rfemur -31.0918 -18.1111 14.3496
rtibia 95.2474
rfoot -17.271 2.29094
rtoes -6.63479
lfemur -0.970137 10.0004 -9.79445
ltibia 40.2757
lfoot -43.5311 -4.74201
ltoes -17.4442
94
root 8.40759 15.7852 1.03717 4.92897 11.6326 -4.30415
lowerback 16.7203 -4.79863 -2.24275
upperback 5.67237 -6.49259 2.65855
thorax -2.68914 -3.2503 5.25339
lowerneck -16.4776 -3.09966 -13.91
upperneck 27.2812 -4.00902 12.4213
head 12.2533 -1.7054 6.572
rclavicle -6.2816e-014 1.23246e-014
rhumerus -66.1132 20.2072 -70.8595
rradius 38.0849
rwrist 49.1414
rhand -43.7019 -10.1134
rfingers 7.12502
rthumb -16.5342 -39.4289
lclavicle -6.2816e-014 1.23246e-014
lhumerus -21.8005 -29.5631 94.525
lradius 87.1132
lwrist -21.5093
lhand -53.8174 6.25547
lfingers 7.12502
lthumb -26.2486 34.46
rfemur -34.0449 -17.0756 15.6618
rtibia 93.5858
rfoot -18.1473 2.30425
rtoes -7.15653
lfemur 2.73364 9.38835 -9.00989
ltibia 35.7803
lfoot -41.4881 -4.80716
ltoes -19.2457
95
root 8.4037 15.8748 1.54316 4.97207 11.1257 -4.6161
lowerback 16.1462 -5.02774 -1.78608
upperback 5.66631 -6.71926 2.82772
thorax -2.40251 -3.37108 5.15501
lowerneck -16.7941 -2.77321 -13.592
upperneck 27.5833 -3.33012 11.4843
head 12.3038 -1.47961 6.25699
rclavicle 7.25564e-014 -1.15295e-014
rhumerus -68.535 21.3015 -71.5762
rradius 39.8008
rwrist 46.1397
rhand -43.4983 -10.1654
rfingers 7.12502
rthumb -16.3381 -39.4972
lclavicle 7.25564e-014 -1.15295e-014
lhumerus -21.4147 -29.6445 93.4277
lradius 88.6741
lwrist -22.3967
lhand -53.5612 5.88775
lfingers 7.12502
lthumb -26.0032 34.1285
rfemur -36.7084 -15.5149 16.9902
rtibia 91.3145
rfoot -18.4229 2.2784
rtoes -6.97728
lfemur 6.72471 8.63397 -8.26862
ltibia 30.8864
lfoot -38.6186 -5.00698
ltoes -21.3804
